<mxfile host="app.diagrams.net" modified="2022-03-22T12:13:00.972Z" agent="5.0 (Windows NT 10.0; Win64; x64) AppleWebKit/537.36 (KHTML, like Gecko) Chrome/99.0.4844.82 Safari/537.36" etag="d_UNXtJI4JosfUsMpyTM" version="17.1.4" type="github">
  <diagram id="8_nz-I3cQ-yNufGTRyOi" name="Zoomcamp-project">
    <mxGraphModel dx="2272" dy="762" grid="1" gridSize="10" guides="1" tooltips="1" connect="1" arrows="1" fold="1" page="1" pageScale="1" pageWidth="850" pageHeight="1100" math="0" shadow="0">
      <root>
        <mxCell id="0" />
        <mxCell id="1" parent="0" />
        <mxCell id="GH9jf21yTLo1oDKEZ-Ji-41" value="" style="rounded=1;whiteSpace=wrap;html=1;fillColor=#dae8fc;strokeColor=#6c8ebf;" parent="1" vertex="1">
          <mxGeometry y="120" width="740" height="310" as="geometry" />
        </mxCell>
        <mxCell id="GH9jf21yTLo1oDKEZ-Ji-34" value="Infrastructure&#xa;System" style="sketch=0;points=[[0,0,0],[0.25,0,0],[0.5,0,0],[0.75,0,0],[1,0,0],[1,0.25,0],[1,0.5,0],[1,0.75,0],[1,1,0],[0.75,1,0],[0.5,1,0],[0.25,1,0],[0,1,0],[0,0.75,0],[0,0.5,0],[0,0.25,0]];rounded=1;absoluteArcSize=1;arcSize=2;html=1;strokeColor=none;gradientColor=none;shadow=0;dashed=0;fontSize=12;fontColor=#9E9E9E;align=left;verticalAlign=top;spacing=10;spacingTop=-4;fillColor=#F3E5F5;" parent="1" vertex="1">
          <mxGeometry x="130" y="180" width="550" height="190" as="geometry" />
        </mxCell>
        <mxCell id="GH9jf21yTLo1oDKEZ-Ji-6" style="edgeStyle=orthogonalEdgeStyle;rounded=0;orthogonalLoop=1;jettySize=auto;html=1;entryX=0;entryY=0.5;entryDx=0;entryDy=0;" parent="1" edge="1">
          <mxGeometry relative="1" as="geometry">
            <mxPoint x="300" y="290" as="sourcePoint" />
            <mxPoint x="365" y="290" as="targetPoint" />
          </mxGeometry>
        </mxCell>
        <mxCell id="GH9jf21yTLo1oDKEZ-Ji-7" style="edgeStyle=orthogonalEdgeStyle;rounded=0;orthogonalLoop=1;jettySize=auto;html=1;entryX=0;entryY=0.5;entryDx=0;entryDy=0;" parent="1" edge="1">
          <mxGeometry relative="1" as="geometry">
            <mxPoint x="485" y="290" as="sourcePoint" />
            <mxPoint x="540" y="290" as="targetPoint" />
          </mxGeometry>
        </mxCell>
        <mxCell id="GH9jf21yTLo1oDKEZ-Ji-11" style="edgeStyle=orthogonalEdgeStyle;rounded=0;orthogonalLoop=1;jettySize=auto;html=1;entryX=0.5;entryY=0;entryDx=0;entryDy=0;" parent="1" edge="1">
          <mxGeometry relative="1" as="geometry">
            <mxPoint x="120" y="290" as="sourcePoint" />
            <mxPoint x="425" y="260" as="targetPoint" />
            <Array as="points">
              <mxPoint x="140" y="290" />
              <mxPoint x="140" y="200" />
              <mxPoint x="425" y="200" />
            </Array>
          </mxGeometry>
        </mxCell>
        <mxCell id="GH9jf21yTLo1oDKEZ-Ji-37" style="edgeStyle=orthogonalEdgeStyle;rounded=0;orthogonalLoop=1;jettySize=auto;html=1;entryX=0;entryY=0.5;entryDx=0;entryDy=0;entryPerimeter=0;" parent="1" source="GH9jf21yTLo1oDKEZ-Ji-18" target="GH9jf21yTLo1oDKEZ-Ji-42" edge="1">
          <mxGeometry relative="1" as="geometry">
            <mxPoint y="290" as="targetPoint" />
          </mxGeometry>
        </mxCell>
        <mxCell id="GH9jf21yTLo1oDKEZ-Ji-18" value="" style="dashed=0;outlineConnect=0;html=1;align=center;labelPosition=center;verticalLabelPosition=bottom;verticalAlign=top;shape=mxgraph.weblogos.twitter;fillColor=#1DA1F2;strokeColor=none" parent="1" vertex="1">
          <mxGeometry x="-120" y="257" width="50" height="40" as="geometry" />
        </mxCell>
        <mxCell id="GH9jf21yTLo1oDKEZ-Ji-40" style="edgeStyle=orthogonalEdgeStyle;rounded=0;orthogonalLoop=1;jettySize=auto;html=1;entryX=0.5;entryY=0;entryDx=0;entryDy=0;entryPerimeter=0;" parent="1" source="GH9jf21yTLo1oDKEZ-Ji-19" target="GH9jf21yTLo1oDKEZ-Ji-42" edge="1">
          <mxGeometry relative="1" as="geometry">
            <mxPoint x="60" y="260" as="targetPoint" />
          </mxGeometry>
        </mxCell>
        <mxCell id="GH9jf21yTLo1oDKEZ-Ji-19" value="" style="dashed=0;outlineConnect=0;html=1;align=center;labelPosition=center;verticalLabelPosition=bottom;verticalAlign=top;shape=mxgraph.weblogos.chrome" parent="1" vertex="1">
          <mxGeometry x="-120" y="177" width="50" height="45.4" as="geometry" />
        </mxCell>
        <mxCell id="GH9jf21yTLo1oDKEZ-Ji-38" style="edgeStyle=orthogonalEdgeStyle;rounded=0;orthogonalLoop=1;jettySize=auto;html=1;entryX=0.5;entryY=1;entryDx=0;entryDy=0;entryPerimeter=0;" parent="1" source="GH9jf21yTLo1oDKEZ-Ji-21" target="GH9jf21yTLo1oDKEZ-Ji-42" edge="1">
          <mxGeometry relative="1" as="geometry">
            <mxPoint x="60" y="320" as="targetPoint" />
          </mxGeometry>
        </mxCell>
        <mxCell id="GH9jf21yTLo1oDKEZ-Ji-21" value="" style="dashed=0;outlineConnect=0;html=1;align=center;labelPosition=center;verticalLabelPosition=bottom;verticalAlign=top;shape=mxgraph.weblogos.chrome" parent="1" vertex="1">
          <mxGeometry x="-120" y="327" width="50" height="45.4" as="geometry" />
        </mxCell>
        <mxCell id="GH9jf21yTLo1oDKEZ-Ji-28" value="" style="strokeColor=#dddddd;shadow=1;strokeWidth=1;rounded=1;absoluteArcSize=1;arcSize=2;" parent="1" vertex="1">
          <mxGeometry x="190" y="260" width="110" height="60" as="geometry" />
        </mxCell>
        <mxCell id="GH9jf21yTLo1oDKEZ-Ji-29" value="Cloud&#xa;Storage" style="sketch=0;dashed=0;connectable=0;html=1;fillColor=#5184F3;strokeColor=none;shape=mxgraph.gcp2.hexIcon;prIcon=cloud_storage;part=1;labelPosition=right;verticalLabelPosition=middle;align=left;verticalAlign=middle;spacingLeft=5;fontColor=#999999;fontSize=12;" parent="GH9jf21yTLo1oDKEZ-Ji-28" vertex="1">
          <mxGeometry y="0.5" width="44" height="39" relative="1" as="geometry">
            <mxPoint x="5" y="-19.5" as="offset" />
          </mxGeometry>
        </mxCell>
        <mxCell id="GH9jf21yTLo1oDKEZ-Ji-30" value="Compute&#xa;Engine" style="sketch=0;html=1;fillColor=#5184F3;strokeColor=none;verticalAlign=top;labelPosition=center;verticalLabelPosition=bottom;align=center;spacingTop=-6;fontSize=11;fontStyle=1;fontColor=#999999;shape=mxgraph.gcp2.hexIcon;prIcon=compute_engine" parent="1" vertex="1">
          <mxGeometry x="602" y="180" width="38" height="30" as="geometry" />
        </mxCell>
        <mxCell id="GH9jf21yTLo1oDKEZ-Ji-32" value="" style="strokeColor=#dddddd;shadow=1;strokeWidth=1;rounded=1;absoluteArcSize=1;arcSize=2;" parent="1" vertex="1">
          <mxGeometry x="365" y="260" width="120" height="60" as="geometry" />
        </mxCell>
        <mxCell id="GH9jf21yTLo1oDKEZ-Ji-33" value="BigQuery" style="sketch=0;dashed=0;connectable=0;html=1;fillColor=#5184F3;strokeColor=none;shape=mxgraph.gcp2.hexIcon;prIcon=bigquery;part=1;labelPosition=right;verticalLabelPosition=middle;align=left;verticalAlign=middle;spacingLeft=5;fontColor=#999999;fontSize=12;" parent="GH9jf21yTLo1oDKEZ-Ji-32" vertex="1">
          <mxGeometry y="0.5" width="44" height="39" relative="1" as="geometry">
            <mxPoint x="5" y="-19.5" as="offset" />
          </mxGeometry>
        </mxCell>
        <mxCell id="GH9jf21yTLo1oDKEZ-Ji-35" value="" style="sketch=0;html=1;aspect=fixed;strokeColor=none;shadow=0;align=center;verticalAlign=top;fillColor=#3B8DF1;shape=mxgraph.gcp2.monitor" parent="1" vertex="1">
          <mxGeometry x="540" y="248" width="100" height="85" as="geometry" />
        </mxCell>
        <mxCell id="GH9jf21yTLo1oDKEZ-Ji-44" value="" style="edgeStyle=orthogonalEdgeStyle;rounded=0;orthogonalLoop=1;jettySize=auto;html=1;" parent="1" source="GH9jf21yTLo1oDKEZ-Ji-42" target="GH9jf21yTLo1oDKEZ-Ji-28" edge="1">
          <mxGeometry relative="1" as="geometry" />
        </mxCell>
        <mxCell id="GH9jf21yTLo1oDKEZ-Ji-42" value="" style="sketch=0;points=[[0,0,0],[0.25,0,0],[0.5,0,0],[0.75,0,0],[1,0,0],[0,1,0],[0.25,1,0],[0.5,1,0],[0.75,1,0],[1,1,0],[0,0.25,0],[0,0.5,0],[0,0.75,0],[1,0.25,0],[1,0.5,0],[1,0.75,0]];outlineConnect=0;fontColor=#232F3E;gradientColor=#FF4F8B;gradientDirection=north;fillColor=#BC1356;strokeColor=#ffffff;dashed=0;verticalLabelPosition=bottom;verticalAlign=top;align=center;html=1;fontSize=12;fontStyle=0;aspect=fixed;shape=mxgraph.aws4.resourceIcon;resIcon=mxgraph.aws4.managed_workflows_for_apache_airflow;" parent="1" vertex="1">
          <mxGeometry x="30" y="251" width="78" height="78" as="geometry" />
        </mxCell>
        <mxCell id="GH9jf21yTLo1oDKEZ-Ji-45" value="&lt;font color=&quot;#696969&quot;&gt;Docker&lt;/font&gt;" style="text;html=1;strokeColor=none;fillColor=none;align=center;verticalAlign=middle;whiteSpace=wrap;rounded=0;" parent="1" vertex="1">
          <mxGeometry x="39" y="120" width="60" height="30" as="geometry" />
        </mxCell>
        <mxCell id="GH9jf21yTLo1oDKEZ-Ji-46" value="&lt;font color=&quot;#696969&quot;&gt;Airflow&lt;/font&gt;" style="text;html=1;strokeColor=none;fillColor=none;align=center;verticalAlign=middle;whiteSpace=wrap;rounded=0;" parent="1" vertex="1">
          <mxGeometry x="60" y="329" width="60" height="30" as="geometry" />
        </mxCell>
        <mxCell id="GH9jf21yTLo1oDKEZ-Ji-47" value="&lt;font color=&quot;#696969&quot;&gt;Kaggle Dataset&lt;/font&gt;" style="text;html=1;strokeColor=none;fillColor=none;align=center;verticalAlign=middle;whiteSpace=wrap;rounded=0;" parent="1" vertex="1">
          <mxGeometry x="-125" y="377" width="60" height="30" as="geometry" />
        </mxCell>
        <mxCell id="GH9jf21yTLo1oDKEZ-Ji-48" value="&lt;font color=&quot;#696969&quot;&gt;Twitter API&lt;/font&gt;" style="text;html=1;strokeColor=none;fillColor=none;align=center;verticalAlign=middle;whiteSpace=wrap;rounded=0;" parent="1" vertex="1">
          <mxGeometry x="-130" y="297" width="60" height="30" as="geometry" />
        </mxCell>
        <mxCell id="GH9jf21yTLo1oDKEZ-Ji-49" value="&lt;font color=&quot;#696969&quot;&gt;UN website&lt;/font&gt;" style="text;html=1;strokeColor=none;fillColor=none;align=center;verticalAlign=middle;whiteSpace=wrap;rounded=0;" parent="1" vertex="1">
          <mxGeometry x="-125" y="222.4" width="60" height="30" as="geometry" />
        </mxCell>
        <mxCell id="By1BmkhzJDBf0mHJat_Z-1" value="&lt;font color=&quot;#696969&quot;&gt;Terraform&lt;/font&gt;" style="text;html=1;strokeColor=none;fillColor=none;align=center;verticalAlign=middle;whiteSpace=wrap;rounded=0;" vertex="1" parent="1">
          <mxGeometry x="130" y="342.4" width="60" height="30" as="geometry" />
        </mxCell>
        <mxCell id="By1BmkhzJDBf0mHJat_Z-2" value="&lt;font color=&quot;#696969&quot;&gt;DBT&lt;/font&gt;" style="text;html=1;strokeColor=none;fillColor=none;align=center;verticalAlign=middle;whiteSpace=wrap;rounded=0;" vertex="1" parent="1">
          <mxGeometry x="390" y="320" width="60" height="30" as="geometry" />
        </mxCell>
      </root>
    </mxGraphModel>
  </diagram>
</mxfile>
